<?xml version="1.0" encoding="UTF-8" standalone="no"?><svg xmlns="http://www.w3.org/2000/svg" xmlns:xlink="http://www.w3.org/1999/xlink" contentScriptType="application/ecmascript" contentStyleType="text/css" height="590px" preserveAspectRatio="none" style="width:3287px;height:590px;background:#FFFFFF;" version="1.1" viewBox="0 0 3287 590" width="3287px" zoomAndPan="magnify"><defs><filter height="300%" id="f1jcl4539c6ssq" width="300%" x="-1" y="-1"><feGaussianBlur result="blurOut" stdDeviation="2.0"/><feColorMatrix in="blurOut" result="blurOut2" type="matrix" values="0 0 0 0 0 0 0 0 0 0 0 0 0 0 0 0 0 0 .4 0"/><feOffset dx="4.0" dy="4.0" in="blurOut2" result="blurOut3"/><feBlend in="SourceGraphic" in2="blurOut3" mode="normal"/></filter></defs><g><!--MD5=[067c53683da6b885ca2463a43fb725d8]
class KafkaConsumerConfig--><rect codeLine="3" fill="#FEFECE" filter="url(#f1jcl4539c6ssq)" height="123.0156" id="KafkaConsumerConfig" style="stroke:#A80036;stroke-width:1.5;" width="853" x="7" y="7"/><ellipse cx="360.75" cy="23" fill="#ADD1B2" rx="11" ry="11" style="stroke:#A80036;stroke-width:1.0;"/><path d="M363.5156,18.875 Q363.6719,18.6563 363.8594,18.5469 Q364.0469,18.4375 364.2656,18.4375 Q364.6406,18.4375 364.875,18.7031 Q365.1094,18.9531 365.1094,19.5625 L365.1094,21.0156 Q365.1094,21.625 364.875,21.8906 Q364.6406,22.1563 364.2656,22.1563 Q363.9219,22.1563 363.7188,21.9531 Q363.5156,21.7656 363.4063,21.25 Q363.3594,20.8906 363.1719,20.7031 Q362.8438,20.3281 362.2344,20.1094 Q361.625,19.8906 361,19.8906 Q360.2344,19.8906 359.5938,20.2188 Q358.9688,20.5469 358.4688,21.2969 Q357.9844,22.0469 357.9844,23.0781 L357.9844,24.1719 Q357.9844,25.4063 358.875,26.2344 Q359.7656,27.0469 361.3594,27.0469 Q362.2969,27.0469 362.9531,26.7969 Q363.3438,26.6406 363.7656,26.2031 Q364.0313,25.9375 364.1719,25.8594 Q364.3281,25.7813 364.5313,25.7813 Q364.8594,25.7813 365.1094,26.0469 Q365.375,26.2969 365.375,26.6406 Q365.375,26.9844 365.0313,27.3906 Q364.5313,27.9688 363.7344,28.2969 Q362.6563,28.75 361.3594,28.75 Q359.8438,28.75 358.6406,28.125 Q357.6563,27.625 356.9688,26.5625 Q356.2813,25.4844 356.2813,24.2031 L356.2813,23.0469 Q356.2813,21.7188 356.8906,20.5781 Q357.5156,19.4219 358.6094,18.8125 Q359.7031,18.1875 360.9375,18.1875 Q361.6719,18.1875 362.3125,18.3594 Q362.9688,18.5156 363.5156,18.875 Z " fill="#000000"/><ellipse cx="386.25" cy="22.5" fill="#84BE84" rx="3" ry="3" style="stroke:#038048;stroke-width:1.0;"/><text fill="#000000" font-family="sans-serif" font-size="12" lengthAdjust="spacing" textLength="126" x="392.25" y="27.9102">KafkaConsumerConfig</text><line style="stroke:#A80036;stroke-width:1.5;" x1="8" x2="859" y1="39" y2="39"/><ellipse cx="18" cy="50" fill="#84BE84" rx="3" ry="3" style="stroke:#038048;stroke-width:1.0;"/><text fill="#000000" font-family="sans-serif" font-size="11" lengthAdjust="spacing" textLength="375" x="27" y="54.4189">ConsumerFactory&lt;String String&gt; consumerFactory (String bootstrapAddress)</text><ellipse cx="18" cy="63.8359" fill="#84BE84" rx="3" ry="3" style="stroke:#038048;stroke-width:1.0;"/><text fill="#000000" font-family="sans-serif" font-size="11" lengthAdjust="spacing" textLength="682" x="27" y="68.2549">ConcurrentKafkaListenerContainerFactory&lt;String String&gt; kafkaListenerContainerFactory (ConsumerFactory&lt;String String&gt; consumerFactory)</text><ellipse cx="18" cy="77.6719" fill="#84BE84" rx="3" ry="3" style="stroke:#038048;stroke-width:1.0;"/><text fill="#000000" font-family="sans-serif" font-size="11" lengthAdjust="spacing" textLength="419" x="27" y="82.0908">ConsumerFactory&lt;String String&gt; consumerFactoryWithFilter (String bootstrapAddress)</text><ellipse cx="18" cy="91.5078" fill="#84BE84" rx="3" ry="3" style="stroke:#038048;stroke-width:1.0;"/><text fill="#000000" font-family="sans-serif" font-size="11" lengthAdjust="spacing" textLength="726" x="27" y="95.9268">ConcurrentKafkaListenerContainerFactory&lt;String String&gt; kafkaListenerContainerFactoryWithFilter (ConsumerFactory&lt;String String&gt; consumerFactory)</text><ellipse cx="18" cy="105.3438" fill="#84BE84" rx="3" ry="3" style="stroke:#038048;stroke-width:1.0;"/><text fill="#000000" font-family="sans-serif" font-size="11" lengthAdjust="spacing" textLength="468" x="27" y="109.7627">ConsumerFactory&lt;String CustomMessage&gt; consumerFactoryWithPojo (String bootstrapAddress)</text><ellipse cx="18" cy="119.1797" fill="#84BE84" rx="3" ry="3" style="stroke:#038048;stroke-width:1.0;"/><text fill="#000000" font-family="sans-serif" font-size="11" lengthAdjust="spacing" textLength="827" x="27" y="123.5986">ConcurrentKafkaListenerContainerFactory&lt;String CustomMessage&gt; kafkaListenerContainerFactoryWithPojo (ConsumerFactory&lt;String CustomMessage&gt; consumerFactory)</text><!--MD5=[0e6d94074ab94147d882d0b01e6679e4]
class KafkaProducerConfig--><rect codeLine="13" fill="#FEFECE" filter="url(#f1jcl4539c6ssq)" height="95.3438" id="KafkaProducerConfig" style="stroke:#A80036;stroke-width:1.5;" width="668" x="895.5" y="21"/><ellipse cx="1161.25" cy="37" fill="#ADD1B2" rx="11" ry="11" style="stroke:#A80036;stroke-width:1.0;"/><path d="M1164.0156,32.875 Q1164.1719,32.6563 1164.3594,32.5469 Q1164.5469,32.4375 1164.7656,32.4375 Q1165.1406,32.4375 1165.375,32.7031 Q1165.6094,32.9531 1165.6094,33.5625 L1165.6094,35.0156 Q1165.6094,35.625 1165.375,35.8906 Q1165.1406,36.1563 1164.7656,36.1563 Q1164.4219,36.1563 1164.2188,35.9531 Q1164.0156,35.7656 1163.9063,35.25 Q1163.8594,34.8906 1163.6719,34.7031 Q1163.3438,34.3281 1162.7344,34.1094 Q1162.125,33.8906 1161.5,33.8906 Q1160.7344,33.8906 1160.0938,34.2188 Q1159.4688,34.5469 1158.9688,35.2969 Q1158.4844,36.0469 1158.4844,37.0781 L1158.4844,38.1719 Q1158.4844,39.4063 1159.375,40.2344 Q1160.2656,41.0469 1161.8594,41.0469 Q1162.7969,41.0469 1163.4531,40.7969 Q1163.8438,40.6406 1164.2656,40.2031 Q1164.5313,39.9375 1164.6719,39.8594 Q1164.8281,39.7813 1165.0313,39.7813 Q1165.3594,39.7813 1165.6094,40.0469 Q1165.875,40.2969 1165.875,40.6406 Q1165.875,40.9844 1165.5313,41.3906 Q1165.0313,41.9688 1164.2344,42.2969 Q1163.1563,42.75 1161.8594,42.75 Q1160.3438,42.75 1159.1406,42.125 Q1158.1563,41.625 1157.4688,40.5625 Q1156.7813,39.4844 1156.7813,38.2031 L1156.7813,37.0469 Q1156.7813,35.7188 1157.3906,34.5781 Q1158.0156,33.4219 1159.1094,32.8125 Q1160.2031,32.1875 1161.4375,32.1875 Q1162.1719,32.1875 1162.8125,32.3594 Q1163.4688,32.5156 1164.0156,32.875 Z " fill="#000000"/><ellipse cx="1186.75" cy="36.5" fill="#84BE84" rx="3" ry="3" style="stroke:#038048;stroke-width:1.0;"/><text fill="#000000" font-family="sans-serif" font-size="12" lengthAdjust="spacing" textLength="117" x="1192.75" y="41.9102">KafkaProducerConfig</text><line style="stroke:#A80036;stroke-width:1.5;" x1="896.5" x2="1562.5" y1="53" y2="53"/><ellipse cx="906.5" cy="64" fill="#84BE84" rx="3" ry="3" style="stroke:#038048;stroke-width:1.0;"/><text fill="#000000" font-family="sans-serif" font-size="11" lengthAdjust="spacing" textLength="366" x="915.5" y="68.4189">ProducerFactory&lt;String String&gt; producerFactory (String bootstrapAddress)</text><ellipse cx="906.5" cy="77.8359" fill="#84BE84" rx="3" ry="3" style="stroke:#038048;stroke-width:1.0;"/><text fill="#000000" font-family="sans-serif" font-size="11" lengthAdjust="spacing" textLength="461" x="915.5" y="82.2549">KafkaTemplate&lt;String String&gt; kafkaTemplate (ProducerFactory&lt;String String&gt; producerFactory)</text><ellipse cx="906.5" cy="91.6719" fill="#84BE84" rx="3" ry="3" style="stroke:#038048;stroke-width:1.0;"/><text fill="#000000" font-family="sans-serif" font-size="11" lengthAdjust="spacing" textLength="473" x="915.5" y="96.0908">ProducerFactory&lt;String CustomMessage&gt; customPojoProducerFactory (String bootstrapAddress)</text><ellipse cx="906.5" cy="105.5078" fill="#84BE84" rx="3" ry="3" style="stroke:#038048;stroke-width:1.0;"/><text fill="#000000" font-family="sans-serif" font-size="11" lengthAdjust="spacing" textLength="642" x="915.5" y="109.9268">KafkaTemplate&lt;String CustomMessage&gt; kafkaTemplateWithCustomPojo (ProducerFactory&lt;String CustomMessage&gt; producerFactory)</text><!--MD5=[285799c56db97b1ff04073a80c32724e]
class KafkaTopicConfig--><rect codeLine="21" fill="#FEFECE" filter="url(#f1jcl4539c6ssq)" height="123.0156" id="KafkaTopicConfig" style="stroke:#A80036;stroke-width:1.5;" width="875" x="1599" y="7"/><ellipse cx="1978.25" cy="23" fill="#ADD1B2" rx="11" ry="11" style="stroke:#A80036;stroke-width:1.0;"/><path d="M1981.0156,18.875 Q1981.1719,18.6563 1981.3594,18.5469 Q1981.5469,18.4375 1981.7656,18.4375 Q1982.1406,18.4375 1982.375,18.7031 Q1982.6094,18.9531 1982.6094,19.5625 L1982.6094,21.0156 Q1982.6094,21.625 1982.375,21.8906 Q1982.1406,22.1563 1981.7656,22.1563 Q1981.4219,22.1563 1981.2188,21.9531 Q1981.0156,21.7656 1980.9063,21.25 Q1980.8594,20.8906 1980.6719,20.7031 Q1980.3438,20.3281 1979.7344,20.1094 Q1979.125,19.8906 1978.5,19.8906 Q1977.7344,19.8906 1977.0938,20.2188 Q1976.4688,20.5469 1975.9688,21.2969 Q1975.4844,22.0469 1975.4844,23.0781 L1975.4844,24.1719 Q1975.4844,25.4063 1976.375,26.2344 Q1977.2656,27.0469 1978.8594,27.0469 Q1979.7969,27.0469 1980.4531,26.7969 Q1980.8438,26.6406 1981.2656,26.2031 Q1981.5313,25.9375 1981.6719,25.8594 Q1981.8281,25.7813 1982.0313,25.7813 Q1982.3594,25.7813 1982.6094,26.0469 Q1982.875,26.2969 1982.875,26.6406 Q1982.875,26.9844 1982.5313,27.3906 Q1982.0313,27.9688 1981.2344,28.2969 Q1980.1563,28.75 1978.8594,28.75 Q1977.3438,28.75 1976.1406,28.125 Q1975.1563,27.625 1974.4688,26.5625 Q1973.7813,25.4844 1973.7813,24.2031 L1973.7813,23.0469 Q1973.7813,21.7188 1974.3906,20.5781 Q1975.0156,19.4219 1976.1094,18.8125 Q1977.2031,18.1875 1978.4375,18.1875 Q1979.1719,18.1875 1979.8125,18.3594 Q1980.4688,18.5156 1981.0156,18.875 Z " fill="#000000"/><ellipse cx="2003.75" cy="22.5" fill="#84BE84" rx="3" ry="3" style="stroke:#038048;stroke-width:1.0;"/><text fill="#000000" font-family="sans-serif" font-size="12" lengthAdjust="spacing" textLength="97" x="2009.75" y="27.9102">KafkaTopicConfig</text><line style="stroke:#A80036;stroke-width:1.5;" x1="1600" x2="2473" y1="39" y2="39"/><ellipse cx="1610" cy="50" fill="#84BE84" rx="3" ry="3" style="stroke:#038048;stroke-width:1.0;"/><text fill="#000000" font-family="sans-serif" font-size="11" lengthAdjust="spacing" textLength="247" x="1619" y="54.4189">KafkaAdmin kafkaAdmin (String bootstrapAddress)</text><ellipse cx="1610" cy="63.8359" fill="#84BE84" rx="3" ry="3" style="stroke:#038048;stroke-width:1.0;"/><text fill="#000000" font-family="sans-serif" font-size="11" lengthAdjust="spacing" textLength="92" x="1619" y="68.2549">NewTopic topic1 ()</text><ellipse cx="1610" cy="77.6719" fill="#84BE84" rx="3" ry="3" style="stroke:#038048;stroke-width:1.0;"/><text fill="#000000" font-family="sans-serif" font-size="11" lengthAdjust="spacing" textLength="92" x="1619" y="82.0908">NewTopic topic2 ()</text><ellipse cx="1610" cy="91.5078" fill="#84BE84" rx="3" ry="3" style="stroke:#038048;stroke-width:1.0;"/><text fill="#000000" font-family="sans-serif" font-size="11" lengthAdjust="spacing" textLength="749" x="1619" y="95.9268">ConcurrentKafkaListenerContainerFactory&lt;String String&gt; filterKafkaListenerContainerFactory (ConsumerFactory&lt;String String&gt; consumerFactoryWithFilter)</text><ellipse cx="1610" cy="105.3438" fill="#84BE84" rx="3" ry="3" style="stroke:#038048;stroke-width:1.0;"/><text fill="#000000" font-family="sans-serif" font-size="11" lengthAdjust="spacing" textLength="849" x="1619" y="109.7627">ConcurrentKafkaListenerContainerFactory&lt;String CustomMessage&gt; pojoKafkaListenerContainerFactory (ConsumerFactory&lt;String CustomMessage&gt; consumerFactoryWithPojo)</text><rect fill="#F24D5C" height="6" style="stroke:#C82930;stroke-width:1.0;" width="6" x="1607" y="116.1797"/><text fill="#000000" font-family="sans-serif" font-size="11" lengthAdjust="spacing" textLength="350" x="1619" y="123.5986">RecordFilterStrategy&lt;String String&gt; createCustomRecordFilterStrategy ()</text><!--MD5=[ffaa840b41df4c7c9690665be51f9615]
class KafkaConstants--><rect codeLine="31" fill="#FEFECE" filter="url(#f1jcl4539c6ssq)" height="109.1797" id="KafkaConstants" style="stroke:#A80036;stroke-width:1.5;" width="233" x="317" y="194"/><ellipse cx="379.75" cy="210" fill="#ADD1B2" rx="11" ry="11" style="stroke:#A80036;stroke-width:1.0;"/><path d="M382.5156,205.875 Q382.6719,205.6563 382.8594,205.5469 Q383.0469,205.4375 383.2656,205.4375 Q383.6406,205.4375 383.875,205.7031 Q384.1094,205.9531 384.1094,206.5625 L384.1094,208.0156 Q384.1094,208.625 383.875,208.8906 Q383.6406,209.1563 383.2656,209.1563 Q382.9219,209.1563 382.7188,208.9531 Q382.5156,208.7656 382.4063,208.25 Q382.3594,207.8906 382.1719,207.7031 Q381.8438,207.3281 381.2344,207.1094 Q380.625,206.8906 380,206.8906 Q379.2344,206.8906 378.5938,207.2188 Q377.9688,207.5469 377.4688,208.2969 Q376.9844,209.0469 376.9844,210.0781 L376.9844,211.1719 Q376.9844,212.4063 377.875,213.2344 Q378.7656,214.0469 380.3594,214.0469 Q381.2969,214.0469 381.9531,213.7969 Q382.3438,213.6406 382.7656,213.2031 Q383.0313,212.9375 383.1719,212.8594 Q383.3281,212.7813 383.5313,212.7813 Q383.8594,212.7813 384.1094,213.0469 Q384.375,213.2969 384.375,213.6406 Q384.375,213.9844 384.0313,214.3906 Q383.5313,214.9688 382.7344,215.2969 Q381.6563,215.75 380.3594,215.75 Q378.8438,215.75 377.6406,215.125 Q376.6563,214.625 375.9688,213.5625 Q375.2813,212.4844 375.2813,211.2031 L375.2813,210.0469 Q375.2813,208.7188 375.8906,207.5781 Q376.5156,206.4219 377.6094,205.8125 Q378.7031,205.1875 379.9375,205.1875 Q380.6719,205.1875 381.3125,205.3594 Q381.9688,205.5156 382.5156,205.875 Z " fill="#000000"/><ellipse cx="405.25" cy="209.5" fill="#84BE84" rx="3" ry="3" style="stroke:#038048;stroke-width:1.0;"/><text fill="#000000" font-family="sans-serif" font-size="12" lengthAdjust="spacing" textLength="88" x="411.25" y="214.9102">KafkaConstants</text><line style="stroke:#A80036;stroke-width:1.5;" x1="318" x2="549" y1="226" y2="226"/><rect fill="none" height="6" style="stroke:#C82930;stroke-width:1.0;" width="6" x="325" y="234"/><text fill="#000000" font-family="sans-serif" font-size="11" lengthAdjust="spacing" textLength="112" x="337" y="241.4189">String DEFAULT_TOPIC</text><ellipse cx="328" cy="250.8359" rx="3" ry="3" style="stroke:#038048;stroke-width:1.0;fill:none;"/><text fill="#000000" font-family="sans-serif" font-size="11" lengthAdjust="spacing" textLength="137" x="337" y="255.2549">String KAFKA_TOPIC_NAME</text><ellipse cx="328" cy="264.6719" rx="3" ry="3" style="stroke:#038048;stroke-width:1.0;fill:none;"/><text fill="#000000" font-family="sans-serif" font-size="11" lengthAdjust="spacing" textLength="207" x="337" y="269.0908">String KAFKA_TOPIC_NAME_WITH_FILTER</text><ellipse cx="328" cy="278.5078" rx="3" ry="3" style="stroke:#038048;stroke-width:1.0;fill:none;"/><text fill="#000000" font-family="sans-serif" font-size="11" lengthAdjust="spacing" textLength="201" x="337" y="282.9268">String KAFKA_TOPIC_NAME_WITH_POJO</text><ellipse cx="328" cy="292.3438" rx="3" ry="3" style="stroke:#038048;stroke-width:1.0;fill:none;"/><text fill="#000000" font-family="sans-serif" font-size="11" lengthAdjust="spacing" textLength="124" x="337" y="296.7627">String KAFKA_GROUP_ID</text><!--MD5=[2047db6834670adb5ffb88c7a6b90368]
class CustomPojoKafkaListener--><rect codeLine="40" fill="#FEFECE" filter="url(#f1jcl4539c6ssq)" height="89.5078" id="CustomPojoKafkaListener" style="stroke:#A80036;stroke-width:1.5;" width="323" x="2269" y="203.5"/><ellipse cx="2348.25" cy="219.5" fill="#ADD1B2" rx="11" ry="11" style="stroke:#A80036;stroke-width:1.0;"/><path d="M2351.0156,215.375 Q2351.1719,215.1563 2351.3594,215.0469 Q2351.5469,214.9375 2351.7656,214.9375 Q2352.1406,214.9375 2352.375,215.2031 Q2352.6094,215.4531 2352.6094,216.0625 L2352.6094,217.5156 Q2352.6094,218.125 2352.375,218.3906 Q2352.1406,218.6563 2351.7656,218.6563 Q2351.4219,218.6563 2351.2188,218.4531 Q2351.0156,218.2656 2350.9063,217.75 Q2350.8594,217.3906 2350.6719,217.2031 Q2350.3438,216.8281 2349.7344,216.6094 Q2349.125,216.3906 2348.5,216.3906 Q2347.7344,216.3906 2347.0938,216.7188 Q2346.4688,217.0469 2345.9688,217.7969 Q2345.4844,218.5469 2345.4844,219.5781 L2345.4844,220.6719 Q2345.4844,221.9063 2346.375,222.7344 Q2347.2656,223.5469 2348.8594,223.5469 Q2349.7969,223.5469 2350.4531,223.2969 Q2350.8438,223.1406 2351.2656,222.7031 Q2351.5313,222.4375 2351.6719,222.3594 Q2351.8281,222.2813 2352.0313,222.2813 Q2352.3594,222.2813 2352.6094,222.5469 Q2352.875,222.7969 2352.875,223.1406 Q2352.875,223.4844 2352.5313,223.8906 Q2352.0313,224.4688 2351.2344,224.7969 Q2350.1563,225.25 2348.8594,225.25 Q2347.3438,225.25 2346.1406,224.625 Q2345.1563,224.125 2344.4688,223.0625 Q2343.7813,221.9844 2343.7813,220.7031 L2343.7813,219.5469 Q2343.7813,218.2188 2344.3906,217.0781 Q2345.0156,215.9219 2346.1094,215.3125 Q2347.2031,214.6875 2348.4375,214.6875 Q2349.1719,214.6875 2349.8125,214.8594 Q2350.4688,215.0156 2351.0156,215.375 Z " fill="#000000"/><ellipse cx="2373.75" cy="219" fill="#84BE84" rx="3" ry="3" style="stroke:#038048;stroke-width:1.0;"/><text fill="#000000" font-family="sans-serif" font-size="12" lengthAdjust="spacing" textLength="145" x="2379.75" y="224.4102">CustomPojoKafkaListener</text><line style="stroke:#A80036;stroke-width:1.5;" x1="2270" x2="2591" y1="235.5" y2="235.5"/><rect fill="none" height="6" style="stroke:#C82930;stroke-width:1.0;" width="6" x="2277" y="243.5"/><text fill="#000000" font-family="sans-serif" font-size="11" lengthAdjust="spacing" textLength="127" x="2289" y="250.9189">CustomMessage message</text><line style="stroke:#A80036;stroke-width:1.5;" x1="2270" x2="2591" y1="257.3359" y2="257.3359"/><ellipse cx="2280" cy="268.3359" fill="#84BE84" rx="3" ry="3" style="stroke:#038048;stroke-width:1.0;"/><text fill="#000000" font-family="sans-serif" font-size="11" lengthAdjust="spacing" textLength="297" x="2289" y="272.7549">void onSuccess (SendResult&lt;String CustomMessage&gt; result)</text><ellipse cx="2280" cy="282.1719" fill="#84BE84" rx="3" ry="3" style="stroke:#038048;stroke-width:1.0;"/><text fill="#000000" font-family="sans-serif" font-size="11" lengthAdjust="spacing" textLength="180" x="2289" y="286.5908">void onFailure (Throwable exception)</text><!--MD5=[9ea9aefea0fc0bd6a985857681ad3bd4]
class ListenableFutureCallback--><rect fill="#FEFECE" filter="url(#f1jcl4539c6ssq)" height="32" id="ListenableFutureCallback" style="stroke:#A80036;stroke-width:1.5;" width="175" x="2509" y="52.5"/><ellipse cx="2524" cy="68.5" fill="#B4A7E5" rx="11" ry="11" style="stroke:#A80036;stroke-width:1.0;"/><path d="M2524.9531,65.1406 L2524.9531,71.7969 L2526.6719,71.7969 Q2527.2813,71.7969 2527.5469,72.0313 Q2527.8125,72.2656 2527.8125,72.6563 Q2527.8125,73.0313 2527.5469,73.2656 Q2527.2813,73.5 2526.6719,73.5 L2521.5313,73.5 Q2520.9219,73.5 2520.6563,73.2656 Q2520.3906,73.0313 2520.3906,72.6406 Q2520.3906,72.2656 2520.6563,72.0313 Q2520.9219,71.7969 2521.5313,71.7969 L2523.25,71.7969 L2523.25,65.1406 L2521.5313,65.1406 Q2520.9219,65.1406 2520.6563,64.9063 Q2520.3906,64.6719 2520.3906,64.2813 Q2520.3906,63.9063 2520.6563,63.6719 Q2520.9219,63.4375 2521.5313,63.4375 L2526.6719,63.4375 Q2527.2813,63.4375 2527.5469,63.6719 Q2527.8125,63.9063 2527.8125,64.2813 Q2527.8125,64.6719 2527.5469,64.9063 Q2527.2813,65.1406 2526.6719,65.1406 L2524.9531,65.1406 Z " fill="#000000"/><text fill="#000000" font-family="sans-serif" font-size="12" font-style="italic" lengthAdjust="spacing" textLength="143" x="2538" y="73.4102">ListenableFutureCallback</text><!--MD5=[348d482def124e82b69aa5c72e0ed9c3]
class CustomMessage--><rect codeLine="62" fill="#FEFECE" filter="url(#f1jcl4539c6ssq)" height="67.6719" id="CustomMessage" style="stroke:#A80036;stroke-width:1.5;" width="138" x="2361.5" y="391.5"/><ellipse cx="2376.5" cy="407.5" fill="#ADD1B2" rx="11" ry="11" style="stroke:#A80036;stroke-width:1.0;"/><path d="M2379.2656,403.375 Q2379.4219,403.1563 2379.6094,403.0469 Q2379.7969,402.9375 2380.0156,402.9375 Q2380.3906,402.9375 2380.625,403.2031 Q2380.8594,403.4531 2380.8594,404.0625 L2380.8594,405.5156 Q2380.8594,406.125 2380.625,406.3906 Q2380.3906,406.6563 2380.0156,406.6563 Q2379.6719,406.6563 2379.4688,406.4531 Q2379.2656,406.2656 2379.1563,405.75 Q2379.1094,405.3906 2378.9219,405.2031 Q2378.5938,404.8281 2377.9844,404.6094 Q2377.375,404.3906 2376.75,404.3906 Q2375.9844,404.3906 2375.3438,404.7188 Q2374.7188,405.0469 2374.2188,405.7969 Q2373.7344,406.5469 2373.7344,407.5781 L2373.7344,408.6719 Q2373.7344,409.9063 2374.625,410.7344 Q2375.5156,411.5469 2377.1094,411.5469 Q2378.0469,411.5469 2378.7031,411.2969 Q2379.0938,411.1406 2379.5156,410.7031 Q2379.7813,410.4375 2379.9219,410.3594 Q2380.0781,410.2813 2380.2813,410.2813 Q2380.6094,410.2813 2380.8594,410.5469 Q2381.125,410.7969 2381.125,411.1406 Q2381.125,411.4844 2380.7813,411.8906 Q2380.2813,412.4688 2379.4844,412.7969 Q2378.4063,413.25 2377.1094,413.25 Q2375.5938,413.25 2374.3906,412.625 Q2373.4063,412.125 2372.7188,411.0625 Q2372.0313,409.9844 2372.0313,408.7031 L2372.0313,407.5469 Q2372.0313,406.2188 2372.6406,405.0781 Q2373.2656,403.9219 2374.3594,403.3125 Q2375.4531,402.6875 2376.6875,402.6875 Q2377.4219,402.6875 2378.0625,402.8594 Q2378.7188,403.0156 2379.2656,403.375 Z " fill="#000000"/><ellipse cx="2395.5" cy="407" fill="#84BE84" rx="3" ry="3" style="stroke:#038048;stroke-width:1.0;"/><text fill="#000000" font-family="sans-serif" font-size="12" lengthAdjust="spacing" textLength="95" x="2401.5" y="412.4102">CustomMessage</text><line style="stroke:#A80036;stroke-width:1.5;" x1="2362.5" x2="2498.5" y1="423.5" y2="423.5"/><rect fill="none" height="6" style="stroke:#C82930;stroke-width:1.0;" width="6" x="2369.5" y="431.5"/><text fill="#000000" font-family="sans-serif" font-size="11" lengthAdjust="spacing" textLength="75" x="2381.5" y="438.9189">String message</text><rect fill="none" height="6" style="stroke:#C82930;stroke-width:1.0;" width="6" x="2369.5" y="445.3359"/><text fill="#000000" font-family="sans-serif" font-size="11" lengthAdjust="spacing" textLength="92" x="2381.5" y="452.7549">String creationTime</text><!--MD5=[317644390a80ec8724509ef6406c3257]
class CustomStringKafkaListener--><rect codeLine="47" fill="#FEFECE" filter="url(#f1jcl4539c6ssq)" height="89.5078" id="CustomStringKafkaListener" style="stroke:#A80036;stroke-width:1.5;" width="271" x="2627" y="203.5"/><ellipse cx="2676.75" cy="219.5" fill="#ADD1B2" rx="11" ry="11" style="stroke:#A80036;stroke-width:1.0;"/><path d="M2679.5156,215.375 Q2679.6719,215.1563 2679.8594,215.0469 Q2680.0469,214.9375 2680.2656,214.9375 Q2680.6406,214.9375 2680.875,215.2031 Q2681.1094,215.4531 2681.1094,216.0625 L2681.1094,217.5156 Q2681.1094,218.125 2680.875,218.3906 Q2680.6406,218.6563 2680.2656,218.6563 Q2679.9219,218.6563 2679.7188,218.4531 Q2679.5156,218.2656 2679.4063,217.75 Q2679.3594,217.3906 2679.1719,217.2031 Q2678.8438,216.8281 2678.2344,216.6094 Q2677.625,216.3906 2677,216.3906 Q2676.2344,216.3906 2675.5938,216.7188 Q2674.9688,217.0469 2674.4688,217.7969 Q2673.9844,218.5469 2673.9844,219.5781 L2673.9844,220.6719 Q2673.9844,221.9063 2674.875,222.7344 Q2675.7656,223.5469 2677.3594,223.5469 Q2678.2969,223.5469 2678.9531,223.2969 Q2679.3438,223.1406 2679.7656,222.7031 Q2680.0313,222.4375 2680.1719,222.3594 Q2680.3281,222.2813 2680.5313,222.2813 Q2680.8594,222.2813 2681.1094,222.5469 Q2681.375,222.7969 2681.375,223.1406 Q2681.375,223.4844 2681.0313,223.8906 Q2680.5313,224.4688 2679.7344,224.7969 Q2678.6563,225.25 2677.3594,225.25 Q2675.8438,225.25 2674.6406,224.625 Q2673.6563,224.125 2672.9688,223.0625 Q2672.2813,221.9844 2672.2813,220.7031 L2672.2813,219.5469 Q2672.2813,218.2188 2672.8906,217.0781 Q2673.5156,215.9219 2674.6094,215.3125 Q2675.7031,214.6875 2676.9375,214.6875 Q2677.6719,214.6875 2678.3125,214.8594 Q2678.9688,215.0156 2679.5156,215.375 Z " fill="#000000"/><ellipse cx="2702.25" cy="219" fill="#84BE84" rx="3" ry="3" style="stroke:#038048;stroke-width:1.0;"/><text fill="#000000" font-family="sans-serif" font-size="12" lengthAdjust="spacing" textLength="152" x="2708.25" y="224.4102">CustomStringKafkaListener</text><line style="stroke:#A80036;stroke-width:1.5;" x1="2628" x2="2897" y1="235.5" y2="235.5"/><rect fill="none" height="6" style="stroke:#C82930;stroke-width:1.0;" width="6" x="2635" y="243.5"/><text fill="#000000" font-family="sans-serif" font-size="11" lengthAdjust="spacing" textLength="75" x="2647" y="250.9189">String message</text><line style="stroke:#A80036;stroke-width:1.5;" x1="2628" x2="2897" y1="257.3359" y2="257.3359"/><ellipse cx="2638" cy="268.3359" fill="#84BE84" rx="3" ry="3" style="stroke:#038048;stroke-width:1.0;"/><text fill="#000000" font-family="sans-serif" font-size="11" lengthAdjust="spacing" textLength="245" x="2647" y="272.7549">void onSuccess (SendResult&lt;String String&gt; result)</text><ellipse cx="2638" cy="282.1719" fill="#84BE84" rx="3" ry="3" style="stroke:#038048;stroke-width:1.0;"/><text fill="#000000" font-family="sans-serif" font-size="11" lengthAdjust="spacing" textLength="180" x="2647" y="286.5908">void onFailure (Throwable exception)</text><!--MD5=[84718776d214be480e4c259efcb737fc]
class Main--><rect codeLine="53" fill="#FEFECE" filter="url(#f1jcl4539c6ssq)" height="117.1797" id="Main" style="stroke:#A80036;stroke-width:1.5;" width="240" x="2933.5" y="190"/><ellipse cx="3030.75" cy="206" fill="#ADD1B2" rx="11" ry="11" style="stroke:#A80036;stroke-width:1.0;"/><path d="M3033.5156,201.875 Q3033.6719,201.6563 3033.8594,201.5469 Q3034.0469,201.4375 3034.2656,201.4375 Q3034.6406,201.4375 3034.875,201.7031 Q3035.1094,201.9531 3035.1094,202.5625 L3035.1094,204.0156 Q3035.1094,204.625 3034.875,204.8906 Q3034.6406,205.1563 3034.2656,205.1563 Q3033.9219,205.1563 3033.7188,204.9531 Q3033.5156,204.7656 3033.4063,204.25 Q3033.3594,203.8906 3033.1719,203.7031 Q3032.8438,203.3281 3032.2344,203.1094 Q3031.625,202.8906 3031,202.8906 Q3030.2344,202.8906 3029.5938,203.2188 Q3028.9688,203.5469 3028.4688,204.2969 Q3027.9844,205.0469 3027.9844,206.0781 L3027.9844,207.1719 Q3027.9844,208.4063 3028.875,209.2344 Q3029.7656,210.0469 3031.3594,210.0469 Q3032.2969,210.0469 3032.9531,209.7969 Q3033.3438,209.6406 3033.7656,209.2031 Q3034.0313,208.9375 3034.1719,208.8594 Q3034.3281,208.7813 3034.5313,208.7813 Q3034.8594,208.7813 3035.1094,209.0469 Q3035.375,209.2969 3035.375,209.6406 Q3035.375,209.9844 3035.0313,210.3906 Q3034.5313,210.9688 3033.7344,211.2969 Q3032.6563,211.75 3031.3594,211.75 Q3029.8438,211.75 3028.6406,211.125 Q3027.6563,210.625 3026.9688,209.5625 Q3026.2813,208.4844 3026.2813,207.2031 L3026.2813,206.0469 Q3026.2813,204.7188 3026.8906,203.5781 Q3027.5156,202.4219 3028.6094,201.8125 Q3029.7031,201.1875 3030.9375,201.1875 Q3031.6719,201.1875 3032.3125,201.3594 Q3032.9688,201.5156 3033.5156,201.875 Z " fill="#000000"/><ellipse cx="3056.25" cy="205.5" fill="#84BE84" rx="3" ry="3" style="stroke:#038048;stroke-width:1.0;"/><text fill="#000000" font-family="sans-serif" font-size="12" lengthAdjust="spacing" textLength="26" x="3062.25" y="210.9102">Main</text><line style="stroke:#A80036;stroke-width:1.5;" x1="2934.5" x2="3172.5" y1="222" y2="222"/><rect fill="none" height="6" style="stroke:#C82930;stroke-width:1.0;" width="6" x="2941.5" y="230"/><text fill="#000000" font-family="sans-serif" font-size="11" lengthAdjust="spacing" textLength="214" x="2953.5" y="237.4189">SendMessageService sendMessageService</text><line style="stroke:#A80036;stroke-width:1.5;" x1="2934.5" x2="3172.5" y1="243.8359" y2="243.8359"/><ellipse cx="2944.5" cy="254.8359" fill="#84BE84" rx="3" ry="3" style="stroke:#038048;stroke-width:1.0;"/><text fill="#000000" font-family="sans-serif" font-size="11" lengthAdjust="spacing" text-decoration="underline" textLength="109" x="2953.5" y="259.2549">void main (String args)</text><ellipse cx="2944.5" cy="268.6719" fill="#84BE84" rx="3" ry="3" style="stroke:#038048;stroke-width:1.0;"/><text fill="#000000" font-family="sans-serif" font-size="11" lengthAdjust="spacing" textLength="103" x="2953.5" y="273.0908">void run (String args)</text><rect fill="#F24D5C" height="6" style="stroke:#C82930;stroke-width:1.0;" width="6" x="2941.5" y="279.5078"/><text fill="#000000" font-family="sans-serif" font-size="11" lengthAdjust="spacing" textLength="78" x="2953.5" y="286.9268">void sendPojo ()</text><rect fill="#F24D5C" height="6" style="stroke:#C82930;stroke-width:1.0;" width="6" x="2941.5" y="293.3438"/><text fill="#000000" font-family="sans-serif" font-size="11" lengthAdjust="spacing" textLength="86" x="2953.5" y="300.7627">void sendString ()</text><!--MD5=[34a2344cadfb5088924753e61221cd38]
class CommandLineRunner--><rect fill="#FEFECE" filter="url(#f1jcl4539c6ssq)" height="32" id="CommandLineRunner" style="stroke:#A80036;stroke-width:1.5;" width="156" x="2975.5" y="52.5"/><ellipse cx="2990.5" cy="68.5" fill="#B4A7E5" rx="11" ry="11" style="stroke:#A80036;stroke-width:1.0;"/><path d="M2991.4531,65.1406 L2991.4531,71.7969 L2993.1719,71.7969 Q2993.7813,71.7969 2994.0469,72.0313 Q2994.3125,72.2656 2994.3125,72.6563 Q2994.3125,73.0313 2994.0469,73.2656 Q2993.7813,73.5 2993.1719,73.5 L2988.0313,73.5 Q2987.4219,73.5 2987.1563,73.2656 Q2986.8906,73.0313 2986.8906,72.6406 Q2986.8906,72.2656 2987.1563,72.0313 Q2987.4219,71.7969 2988.0313,71.7969 L2989.75,71.7969 L2989.75,65.1406 L2988.0313,65.1406 Q2987.4219,65.1406 2987.1563,64.9063 Q2986.8906,64.6719 2986.8906,64.2813 Q2986.8906,63.9063 2987.1563,63.6719 Q2987.4219,63.4375 2988.0313,63.4375 L2993.1719,63.4375 Q2993.7813,63.4375 2994.0469,63.6719 Q2994.3125,63.9063 2994.3125,64.2813 Q2994.3125,64.6719 2994.0469,64.9063 Q2993.7813,65.1406 2993.1719,65.1406 L2991.4531,65.1406 Z " fill="#000000"/><text fill="#000000" font-family="sans-serif" font-size="12" font-style="italic" lengthAdjust="spacing" textLength="124" x="3004.5" y="73.4102">CommandLineRunner</text><!--MD5=[a3126825a73426ecc0e80f2ce92315de]
class SendMessageService--><rect codeLine="76" fill="#FEFECE" filter="url(#f1jcl4539c6ssq)" height="117.1797" id="SendMessageService" style="stroke:#A80036;stroke-width:1.5;" width="439" x="2834" y="367"/><ellipse cx="2983.75" cy="383" fill="#ADD1B2" rx="11" ry="11" style="stroke:#A80036;stroke-width:1.0;"/><path d="M2986.5156,378.875 Q2986.6719,378.6563 2986.8594,378.5469 Q2987.0469,378.4375 2987.2656,378.4375 Q2987.6406,378.4375 2987.875,378.7031 Q2988.1094,378.9531 2988.1094,379.5625 L2988.1094,381.0156 Q2988.1094,381.625 2987.875,381.8906 Q2987.6406,382.1563 2987.2656,382.1563 Q2986.9219,382.1563 2986.7188,381.9531 Q2986.5156,381.7656 2986.4063,381.25 Q2986.3594,380.8906 2986.1719,380.7031 Q2985.8438,380.3281 2985.2344,380.1094 Q2984.625,379.8906 2984,379.8906 Q2983.2344,379.8906 2982.5938,380.2188 Q2981.9688,380.5469 2981.4688,381.2969 Q2980.9844,382.0469 2980.9844,383.0781 L2980.9844,384.1719 Q2980.9844,385.4063 2981.875,386.2344 Q2982.7656,387.0469 2984.3594,387.0469 Q2985.2969,387.0469 2985.9531,386.7969 Q2986.3438,386.6406 2986.7656,386.2031 Q2987.0313,385.9375 2987.1719,385.8594 Q2987.3281,385.7813 2987.5313,385.7813 Q2987.8594,385.7813 2988.1094,386.0469 Q2988.375,386.2969 2988.375,386.6406 Q2988.375,386.9844 2988.0313,387.3906 Q2987.5313,387.9688 2986.7344,388.2969 Q2985.6563,388.75 2984.3594,388.75 Q2982.8438,388.75 2981.6406,388.125 Q2980.6563,387.625 2979.9688,386.5625 Q2979.2813,385.4844 2979.2813,384.2031 L2979.2813,383.0469 Q2979.2813,381.7188 2979.8906,380.5781 Q2980.5156,379.4219 2981.6094,378.8125 Q2982.7031,378.1875 2983.9375,378.1875 Q2984.6719,378.1875 2985.3125,378.3594 Q2985.9688,378.5156 2986.5156,378.875 Z " fill="#000000"/><ellipse cx="3009.25" cy="382.5" fill="#84BE84" rx="3" ry="3" style="stroke:#038048;stroke-width:1.0;"/><text fill="#000000" font-family="sans-serif" font-size="12" lengthAdjust="spacing" textLength="120" x="3015.25" y="387.9102">SendMessageService</text><line style="stroke:#A80036;stroke-width:1.5;" x1="2835" x2="3272" y1="399" y2="399"/><rect fill="none" height="6" style="stroke:#C82930;stroke-width:1.0;" width="6" x="2842" y="407"/><text fill="#000000" font-family="sans-serif" font-size="11" lengthAdjust="spacing" textLength="214" x="2854" y="414.4189">KafkaTemplate&lt;String String&gt; kafkaTemplate</text><rect fill="none" height="6" style="stroke:#C82930;stroke-width:1.0;" width="6" x="2842" y="420.8359"/><text fill="#000000" font-family="sans-serif" font-size="11" lengthAdjust="spacing" textLength="307" x="2854" y="428.2549">KafkaTemplate&lt;String CustomMessage&gt; kafkaTemplateWithPojo</text><line style="stroke:#A80036;stroke-width:1.5;" x1="2835" x2="3272" y1="434.6719" y2="434.6719"/><ellipse cx="2845" cy="445.6719" fill="#84BE84" rx="3" ry="3" style="stroke:#038048;stroke-width:1.0;"/><text fill="#000000" font-family="sans-serif" font-size="11" lengthAdjust="spacing" textLength="404" x="2854" y="450.0908">void sendAsynchronousStringMessage (String asynchronousMessage,String topic)</text><ellipse cx="2845" cy="459.5078" fill="#84BE84" rx="3" ry="3" style="stroke:#038048;stroke-width:1.0;"/><text fill="#000000" font-family="sans-serif" font-size="11" lengthAdjust="spacing" textLength="413" x="2854" y="463.9268">void sendAsynchronousPojoMessage (CustomMessage customMessage,String topic)</text><ellipse cx="2845" cy="473.3438" fill="#84BE84" rx="3" ry="3" style="stroke:#038048;stroke-width:1.0;"/><text fill="#000000" font-family="sans-serif" font-size="11" lengthAdjust="spacing" textLength="334" x="2854" y="477.7627">void sendSynchronousStringMessage (String synchronousMessage)</text><!--MD5=[e0e5afde231f83ff46590a4624bb90c6]
class ConsumeMesssageService--><rect codeLine="68" fill="#FEFECE" filter="url(#f1jcl4539c6ssq)" height="95.3438" id="ConsumeMesssageService" style="stroke:#A80036;stroke-width:1.5;" width="339" x="585" y="201"/><ellipse cx="668.25" cy="217" fill="#ADD1B2" rx="11" ry="11" style="stroke:#A80036;stroke-width:1.0;"/><path d="M671.0156,212.875 Q671.1719,212.6563 671.3594,212.5469 Q671.5469,212.4375 671.7656,212.4375 Q672.1406,212.4375 672.375,212.7031 Q672.6094,212.9531 672.6094,213.5625 L672.6094,215.0156 Q672.6094,215.625 672.375,215.8906 Q672.1406,216.1563 671.7656,216.1563 Q671.4219,216.1563 671.2188,215.9531 Q671.0156,215.7656 670.9063,215.25 Q670.8594,214.8906 670.6719,214.7031 Q670.3438,214.3281 669.7344,214.1094 Q669.125,213.8906 668.5,213.8906 Q667.7344,213.8906 667.0938,214.2188 Q666.4688,214.5469 665.9688,215.2969 Q665.4844,216.0469 665.4844,217.0781 L665.4844,218.1719 Q665.4844,219.4063 666.375,220.2344 Q667.2656,221.0469 668.8594,221.0469 Q669.7969,221.0469 670.4531,220.7969 Q670.8438,220.6406 671.2656,220.2031 Q671.5313,219.9375 671.6719,219.8594 Q671.8281,219.7813 672.0313,219.7813 Q672.3594,219.7813 672.6094,220.0469 Q672.875,220.2969 672.875,220.6406 Q672.875,220.9844 672.5313,221.3906 Q672.0313,221.9688 671.2344,222.2969 Q670.1563,222.75 668.8594,222.75 Q667.3438,222.75 666.1406,222.125 Q665.1563,221.625 664.4688,220.5625 Q663.7813,219.4844 663.7813,218.2031 L663.7813,217.0469 Q663.7813,215.7188 664.3906,214.5781 Q665.0156,213.4219 666.1094,212.8125 Q667.2031,212.1875 668.4375,212.1875 Q669.1719,212.1875 669.8125,212.3594 Q670.4688,212.5156 671.0156,212.875 Z " fill="#000000"/><ellipse cx="693.75" cy="216.5" fill="#84BE84" rx="3" ry="3" style="stroke:#038048;stroke-width:1.0;"/><text fill="#000000" font-family="sans-serif" font-size="12" lengthAdjust="spacing" textLength="153" x="699.75" y="221.9102">ConsumeMesssageService</text><line style="stroke:#A80036;stroke-width:1.5;" x1="586" x2="923" y1="233" y2="233"/><ellipse cx="596" cy="244" fill="#84BE84" rx="3" ry="3" style="stroke:#038048;stroke-width:1.0;"/><text fill="#000000" font-family="sans-serif" font-size="11" lengthAdjust="spacing" textLength="279" x="605" y="248.4189">void receiveMessageFromExampleTopic (String message)</text><ellipse cx="596" cy="257.8359" fill="#84BE84" rx="3" ry="3" style="stroke:#038048;stroke-width:1.0;"/><text fill="#000000" font-family="sans-serif" font-size="11" lengthAdjust="spacing" textLength="178" x="605" y="262.2549">void listenWithFilter (String message)</text><ellipse cx="596" cy="271.6719" fill="#84BE84" rx="3" ry="3" style="stroke:#038048;stroke-width:1.0;"/><text fill="#000000" font-family="sans-serif" font-size="11" lengthAdjust="spacing" textLength="274" x="605" y="276.0908">void greetingListener (CustomMessage customMessage)</text><rect fill="#F24D5C" height="6" style="stroke:#C82930;stroke-width:1.0;" width="6" x="593" y="282.5078"/><text fill="#000000" font-family="sans-serif" font-size="11" lengthAdjust="spacing" textLength="313" x="605" y="289.9268">void logMessage (int listenerNumber,String message,String topic)</text><!--MD5=[55aceffbfca4889b468bf2ddbc0cabcf]
class KafkaTemplate--><rect fill="#FEFECE" filter="url(#f1jcl4539c6ssq)" height="32" id="KafkaTemplate" style="stroke:#A80036;stroke-width:1.5;" width="115" x="2996" y="544"/><ellipse cx="3011" cy="560" fill="#ADD1B2" rx="11" ry="11" style="stroke:#A80036;stroke-width:1.0;"/><path d="M3013.7656,555.875 Q3013.9219,555.6563 3014.1094,555.5469 Q3014.2969,555.4375 3014.5156,555.4375 Q3014.8906,555.4375 3015.125,555.7031 Q3015.3594,555.9531 3015.3594,556.5625 L3015.3594,558.0156 Q3015.3594,558.625 3015.125,558.8906 Q3014.8906,559.1563 3014.5156,559.1563 Q3014.1719,559.1563 3013.9688,558.9531 Q3013.7656,558.7656 3013.6563,558.25 Q3013.6094,557.8906 3013.4219,557.7031 Q3013.0938,557.3281 3012.4844,557.1094 Q3011.875,556.8906 3011.25,556.8906 Q3010.4844,556.8906 3009.8438,557.2188 Q3009.2188,557.5469 3008.7188,558.2969 Q3008.2344,559.0469 3008.2344,560.0781 L3008.2344,561.1719 Q3008.2344,562.4063 3009.125,563.2344 Q3010.0156,564.0469 3011.6094,564.0469 Q3012.5469,564.0469 3013.2031,563.7969 Q3013.5938,563.6406 3014.0156,563.2031 Q3014.2813,562.9375 3014.4219,562.8594 Q3014.5781,562.7813 3014.7813,562.7813 Q3015.1094,562.7813 3015.3594,563.0469 Q3015.625,563.2969 3015.625,563.6406 Q3015.625,563.9844 3015.2813,564.3906 Q3014.7813,564.9688 3013.9844,565.2969 Q3012.9063,565.75 3011.6094,565.75 Q3010.0938,565.75 3008.8906,565.125 Q3007.9063,564.625 3007.2188,563.5625 Q3006.5313,562.4844 3006.5313,561.2031 L3006.5313,560.0469 Q3006.5313,558.7188 3007.1406,557.5781 Q3007.7656,556.4219 3008.8594,555.8125 Q3009.9531,555.1875 3011.1875,555.1875 Q3011.9219,555.1875 3012.5625,555.3594 Q3013.2188,555.5156 3013.7656,555.875 Z " fill="#000000"/><text fill="#000000" font-family="sans-serif" font-size="12" lengthAdjust="spacing" textLength="83" x="3025" y="564.9102">KafkaTemplate</text><!--MD5=[9d5f8beef32a22d50ddbe8ff3c7e0aad]
reverse link ListenableFutureCallback to CustomPojoKafkaListener--><path d="M2568.5,99.53 C2542,127.94 2501.91,170.93 2471.76,203.26 " fill="none" id="ListenableFutureCallback-backto-CustomPojoKafkaListener" style="stroke:#A80036;stroke-width:1.0;stroke-dasharray:7.0,7.0;"/><polygon fill="none" points="2563.59,94.53,2582.35,84.68,2573.83,104.08,2563.59,94.53" style="stroke:#A80036;stroke-width:1.0;"/><!--MD5=[6647ed407c5449d8ea32aed78c1cc36d]
reverse link CustomPojoKafkaListener to CustomMessage--><path codeLine="46" d="M2430.5,306.97 C2430.5,334.96 2430.5,367.63 2430.5,391.4 " fill="none" id="CustomPojoKafkaListener-backto-CustomMessage" style="stroke:#A80036;stroke-width:1.0;"/><polygon fill="#FFFFFF" points="2430.5,293.66,2426.5,299.66,2430.5,305.66,2434.5,299.66,2430.5,293.66" style="stroke:#A80036;stroke-width:1.0;"/><!--MD5=[66c0288c2ec90a0fc8bf50bfe2953d02]
reverse link ListenableFutureCallback to CustomStringKafkaListener--><path d="M2624.5,99.53 C2651,127.94 2691.09,170.93 2721.24,203.26 " fill="none" id="ListenableFutureCallback-backto-CustomStringKafkaListener" style="stroke:#A80036;stroke-width:1.0;stroke-dasharray:7.0,7.0;"/><polygon fill="none" points="2619.17,104.08,2610.65,84.68,2629.41,94.53,2619.17,104.08" style="stroke:#A80036;stroke-width:1.0;"/><!--MD5=[d30a6f4c9732f1286a7e2185313ffe0f]
reverse link CommandLineRunner to Main--><path d="M3053.5,104.94 C3053.5,129.23 3053.5,162 3053.5,190 " fill="none" id="CommandLineRunner-backto-Main" style="stroke:#A80036;stroke-width:1.0;stroke-dasharray:7.0,7.0;"/><polygon fill="none" points="3046.5,104.68,3053.5,84.68,3060.5,104.68,3046.5,104.68" style="stroke:#A80036;stroke-width:1.0;"/><!--MD5=[aff50d2ef3194ede6e205eb9c9c46408]
reverse link Main to SendMessageService--><path codeLine="61" d="M3053.5,320.56 C3053.5,335.93 3053.5,351.99 3053.5,366.77 " fill="none" id="Main-backto-SendMessageService" style="stroke:#A80036;stroke-width:1.0;"/><polygon fill="#FFFFFF" points="3053.5,307.29,3049.5,313.29,3053.5,319.29,3057.5,313.29,3053.5,307.29" style="stroke:#A80036;stroke-width:1.0;"/><!--MD5=[b0021f4c86ffa12297f5fa78f8e237cf]
reverse link SendMessageService to KafkaTemplate--><path codeLine="84" d="M3053.5,497.39 C3053.5,515.02 3053.5,532.21 3053.5,543.93 " fill="none" id="SendMessageService-backto-KafkaTemplate" style="stroke:#A80036;stroke-width:1.0;"/><polygon fill="#FFFFFF" points="3053.5,484.23,3049.5,490.23,3053.5,496.23,3057.5,490.23,3053.5,484.23" style="stroke:#A80036;stroke-width:1.0;"/><!--MD5=[fff48d8e9474e11fae782e565fae17a8]
link KafkaConsumerConfig to KafkaProducerConfig--><!--MD5=[e1bd953c0861695865174f5c8dd64333]
link KafkaProducerConfig to KafkaTopicConfig--><!--MD5=[a048c80fc09c3cf8170210eb11ba97f2]
link KafkaConsumerConfig to KafkaConstants--><!--MD5=[4b1c4d3679bb19b5e4f364483f7b4506]
link KafkaConstants to ConsumeMesssageService--><!--MD5=[c5e7767c2b32bccb1f72ffb9199b2bc5]
@startuml
hide empty members
skinparam groupInheritance 3
+class KafkaConsumerConfig{


+  ConsumerFactory<String String> consumerFactory (String bootstrapAddress)
+  ConcurrentKafkaListenerContainerFactory<String String> kafkaListenerContainerFactory (ConsumerFactory<String String> consumerFactory)
+  ConsumerFactory<String String> consumerFactoryWithFilter (String bootstrapAddress)
+  ConcurrentKafkaListenerContainerFactory<String String> kafkaListenerContainerFactoryWithFilter (ConsumerFactory<String String> consumerFactory)
+  ConsumerFactory<String CustomMessage> consumerFactoryWithPojo (String bootstrapAddress)
+  ConcurrentKafkaListenerContainerFactory<String CustomMessage> kafkaListenerContainerFactoryWithPojo (ConsumerFactory<String CustomMessage> consumerFactory)
}
+class KafkaProducerConfig{


+  ProducerFactory<String String> producerFactory (String bootstrapAddress)
+  KafkaTemplate<String String> kafkaTemplate (ProducerFactory<String String> producerFactory)
+  ProducerFactory<String CustomMessage> customPojoProducerFactory (String bootstrapAddress)
+  KafkaTemplate<String CustomMessage> kafkaTemplateWithCustomPojo (ProducerFactory<String CustomMessage> producerFactory)
}
+class KafkaTopicConfig{


+  KafkaAdmin kafkaAdmin (String bootstrapAddress)
+  NewTopic topic1 ()
+  NewTopic topic2 ()
+  ConcurrentKafkaListenerContainerFactory<String String> filterKafkaListenerContainerFactory (ConsumerFactory<String String> consumerFactoryWithFilter)
+  ConcurrentKafkaListenerContainerFactory<String CustomMessage> pojoKafkaListenerContainerFactory (ConsumerFactory<String CustomMessage> consumerFactoryWithPojo)
-  RecordFilterStrategy<String String> createCustomRecordFilterStrategy ()
}
+class KafkaConstants{
-String DEFAULT_TOPIC
+String KAFKA_TOPIC_NAME
+String KAFKA_TOPIC_NAME_WITH_FILTER
+String KAFKA_TOPIC_NAME_WITH_POJO
+String KAFKA_GROUP_ID


}
+class CustomPojoKafkaListener implements ListenableFutureCallback{
-CustomMessage message

+  void onSuccess (SendResult<String CustomMessage> result)
+  void onFailure (Throwable exception)
}
CustomPojoKafkaListener o- - CustomMessage
+class CustomStringKafkaListener implements ListenableFutureCallback{
-String message

+  void onSuccess (SendResult<String String> result)
+  void onFailure (Throwable exception)
}
+class Main implements CommandLineRunner{
-SendMessageService sendMessageService

+ {static} void main (String args)
+  void run (String args)
-  void sendPojo ()
-  void sendString ()
}
Main o- - SendMessageService
+class CustomMessage{
-String message
-String creationTime


}
+class ConsumeMesssageService{


+  void receiveMessageFromExampleTopic (String message)
+  void listenWithFilter (String message)
+  void greetingListener (CustomMessage customMessage)
-  void logMessage (int listenerNumber,String message,String topic)
}
+class SendMessageService{
-KafkaTemplate<String String> kafkaTemplate
-KafkaTemplate<String CustomMessage> kafkaTemplateWithPojo

+  void sendAsynchronousStringMessage (String asynchronousMessage,String topic)
+  void sendAsynchronousPojoMessage (CustomMessage customMessage,String topic)
+  void sendSynchronousStringMessage (String synchronousMessage)
}
SendMessageService o- - KafkaTemplate
@enduml

PlantUML version 1.2021.9(Sun Jul 25 12:13:56 CEST 2021)
(GPL source distribution)
Java Runtime: OpenJDK Runtime Environment
JVM: OpenJDK 64-Bit Server VM
Default Encoding: UTF-8
Language: es
Country: ES
--></g></svg>